<?xml version="1.0" encoding="UTF-8"?>
<svg width="32" height="32" viewBox="0 0 32 32" fill="none" xmlns="http://www.w3.org/2000/svg">
    <!-- Background Circle -->
    <circle cx="16" cy="16" r="15" fill="#4A90E2" stroke="#2C3E50" stroke-width="2"/>
    
    <!-- Chat Bubbles -->
    <path d="M10 11C10 10.4477 10.4477 10 11 10H15C15.5523 10 16 10.4477 16 11V14C16 14.5523 15.5523 15 15 15H13L11 17V15H11C10.4477 15 10 14.5523 10 14V11Z" 
          fill="white" stroke="#2C3E50" stroke-width="1" stroke-linejoin="round"/>
    
    <path d="M16 18C16 17.4477 16.4477 17 17 17H21C21.5523 17 22 17.4477 22 18V21C22 21.5523 21.5523 22 21 22H19L17 24V22H17C16.4477 22 16 21.5523 16 21V18Z" 
          fill="white" stroke="#2C3E50" stroke-width="1" stroke-linejoin="round"/>
    
    <!-- Link Symbol -->
    <path d="M14 11L18 21" stroke="#2C3E50" stroke-width="1.5" stroke-linecap="round"/>
</svg>
